# xmcd
#
# Track frame offsets:
#	150
#	13231
#	34623
#	44776
#	66015
#	80105
#	114059
#	129363
#	147312
#	172464
#	198316
#	217272
#	230711
#	246449
#	264448
#	274670
#	286768
#	298036
#	318699
#	334294
#
# Disc length: 4592 seconds
#
# Revision: 0
# Processed by: cddbd v1.5.2PL0 Copyright (c) Steve Scherf et al.
# Submitted via: EZCDAudioConverter 3.0.7.1
#
DISCID=4811ee14
DTITLE=Les choeurs de l'Armée Rouge vol.4
DYEAR=2013
DGENRE=
TTITLE0=Carmina Burana-Orff
TTITLE1=Carmen-Bizet
TTITLE2=Requiem-Mozart
TTITLE3=Nabucco-Verdi
TTITLE4=LaFlùteEnchantèe-Mozart
TTITLE5=Aida-Verdi
TTITLE6=HymneÁLaJoie-Beethoven
TTITLE7=LeTrouvére-Verdi
TTITLE8=Cantate-Tschaikowsky
TTITLE9=BachianasBrasileiras-HeitorVillaLobos
TTITLE10=Granada
TTITLE11=Asturias
TTITLE12=JeuxInterdits
TTITLE13=Turandot
TTITLE14=LeChantDeL`ArméeSoviétique
TTITLE15=AdieuSlavianka
TTITLE16=LeChoeurDesSoldats
TTITLE17=CocherRetiensTesChevaux
TTITLE18=DansLaForétAprésLaBataille
TTITLE19=LaGuerreSacrée
EXTD=
EXTT0=
EXTT1=
EXTT2=
EXTT3=
EXTT4=
EXTT5=
EXTT6=
EXTT7=
EXTT8=
EXTT9=
EXTT10=
EXTT11=
EXTT12=
EXTT13=
EXTT14=
EXTT15=
EXTT16=
EXTT17=
EXTT18=
EXTT19=
PLAYORDER=
